<?xml version="1.0" encoding="utf-8"?>
<!-- Generator: Adobe Illustrator 19.2.1, SVG Export Plug-In . SVG Version: 6.00 Build 0)  -->
<svg version="1.1" xmlns="http://www.w3.org/2000/svg" xmlns:xlink="http://www.w3.org/1999/xlink" x="0px" y="0px"
	 viewBox="0 0 80 80" style="enable-background:new 0 0 80 80;" xml:space="preserve">
<style type="text/css">
	.st0{fill:#2D3C49;}
	.st1{fill:#FFFFFF;}
	.st2{opacity:0;fill:#E5E5E5;}
	.st3{fill:#02B3E4;}
	.st4{opacity:0;fill:#FFFFFF;}
</style>
<g id="_x31_20-slate">
</g>
<g id="_x34_80-wordmark-white">
</g>
<g id="_x34_80-wordmark-blue">
</g>
<g id="_x34_80-wordmark-slate">
</g>
<g id="_x35_2-slate">
</g>
<g id="_x31_20-blue">
</g>
<g id="_x31_20-white">
</g>
<g id="_x32_40-white">
</g>
<g id="_x32_40-blue">
</g>
<g id="_x32_40-slate">
</g>
<g id="_x34_80-slate">
</g>
<g id="_x34_80-blue">
</g>
<g id="_x34_80-white">
</g>
<g id="_x32_50-vert-white">
</g>
<g id="_x32_50-vert-slate">
</g>
<g id="_x32_50-vert-blue">
</g>
<g id="_x35_00-vert-slate">
</g>
<g id="_x35_00-vert-blue">
</g>
<g id="_x35_00-vert-white">
</g>
<g id="_x31_000-vert-slate">
</g>
<g id="_x31_000-vert-blue">
</g>
<g id="_x31_000-vert-white_1_">
</g>
<g id="_x38_0-mark-white">
	<path id="mark_28_" class="st3" d="M33.352,20l-13.347,7.656l0.001,17.635l0,0C19.981,53.39,26.527,59.975,34.626,60
		c2.678,0.008,5.191-0.702,7.355-1.949l0,0l10.812-6.212c4.265-2.213,7.185-6.663,7.201-11.801l0.001-18.417h0h0l-2.646-1.548
		l-11.342,6.126l0.001,0.001v0l-0.004,19.172c-0.002,0.816-0.061,1.63-0.225,2.42c-0.16,0.769-0.397,1.524-0.705,2.246
		c-0.08,0.187-0.165,0.372-0.254,0.555c-0.448,0.003-2.859-0.871-4.186-1.768c-0.564-0.384-1.095-0.824-1.576-1.309
		c-0.482-0.485-0.919-1.018-1.299-1.584c-0.383-0.571-0.712-1.181-0.977-1.814c-0.27-0.643-0.477-1.316-0.614-2
		c-0.142-0.703-0.173-1.428-0.171-2.153h0l0.009-18.416L33.352,20z M39.758,56.22c-0.724,0.304-1.733,0.703-2.502,0.858
		c-0.791,0.159-1.52,0.239-2.336,0.236c-0.816-0.002-1.63-0.087-2.42-0.251c-0.769-0.16-1.525-0.397-2.247-0.705
		c-0.709-0.303-1.394-0.677-2.034-1.112c-1.651-1.16-2.503-2.165-3.234-3.254c-0.431-0.643-0.801-1.329-1.1-2.041
		c-0.304-0.724-0.536-1.481-0.691-2.251c-0.159-0.791-0.192-1.606-0.19-2.422l0.003-16.096l9.997-6.109l0,16.878h-0.001
		c-0.02,6.413,4.703,11.767,10.733,13.06c-0.236,0.282-0.407,0.554-0.668,0.813C41.947,54.962,41.005,55.691,39.758,56.22z
		 M56.831,42.212c-0.142,0.683-0.353,1.355-0.626,1.997c-0.269,0.631-0.602,1.239-0.988,1.808c-0.384,0.564-1.577,2.054-3.224,2.995
		c-1.647,0.941-3.082,1.212-4.021,1.391c0.606-1.6,1.027-3.208,1.033-5.02l0,0l0-17.637h0l8-4.594l0.003,16.878
		C57.005,40.755,56.977,41.51,56.831,42.212z"/>
</g>
<g id="_x38_0-mark-blue">
</g>
<g id="_x38_0-mark-slate">
</g>
<g id="_x31_60-mark-blue">
</g>
<g id="_x31_60-mark-white">
</g>
<g id="_x31_60-mark-slate">
</g>
<g id="_x33_20-mark-blue">
</g>
<g id="_x33_20-mark-white">
</g>
<g id="_x33_20-mark-slate">
</g>
</svg>
